# xmcd
#
# Track frame offsets: 
#        150
#        17576
#        31403
#        43491
#        57296
#        68625
#        79719
#        89492
#        103976
#        117078
#        128554
#        141045
#        155495
#        167490
#        181380
#        194175
#        206651
#        220127
#        232486
#        248566
#        258510
#        272512
#        284618
#        298254
#
# Disc length: 4138 seconds
#
# Revision: 2
# Processed by: cddbd v1.5.2PL0 Copyright (c) Steve Scherf et al.
# Submitted via: ExactAudioCopy v0.99pb4
#
DISCID=74102818
DTITLE=The Young Lions - Chicago Blues Guitar Heroes
DYEAR=2009
DGENRE=Blues
TTITLE0=Little Joe Lee - Lucky Lou
TTITLE1=Shakey Jake with Magic Sam and Freddy King - Call Me (If You N
TTITLE1=eed Me)
TTITLE2=Junior Wells with Louis Meyer- Lord Lord
TTITLE3=Charles Clark with Otis Rush and Louis Meyer - Row Your Boat
TTITLE4=Earl 'Zeb' Hooker - Frog Hop
TTITLE5=Fenton Robinson and The Dukes - Tennessee Woman
TTITLE6=Junior Wells with Syl Johnson - Lovey Dovey Lovey One
TTITLE7=Little Joe Lee - You May
TTITLE8=Earl 'Zeb' Hooker - Guitar Rumba
TTITLE9=Clear Waters his Band - Hillybilly Blues
TTITLE10=Morris Pejoe Screaming and Crying
TTITLE11=Little Milton - I'm a Lonely Man
TTITLE12=Otis Rush - All Your Love (I Miss Loving)
TTITLE13=Otis Rush - I Can't Quit You Baby
TTITLE14=Otis Rush - It Takes Time
TTITLE15=Otis Rush - Double Trouble
TTITLE16=Magic Sam - All Your Love
TTITLE17=Magic Sam - 21 Days In Jail
TTITLE18=Magic Sam - Easy Baby
TTITLE19=Magic Sam - Love Me With a Feeling
TTITLE20=Buddy Guy - Sit And Cry
TTITLE21=Buddy Guy - Try To Quit You Baby
TTITLE22=Buddy Guy - This Is The End
TTITLE23=Buddy Guy - You Sure Can't Do
EXTD=
EXTT0=
EXTT1=
EXTT2=
EXTT3=
EXTT4=
EXTT5=
EXTT6=
EXTT7=
EXTT8=
EXTT9=
EXTT10=
EXTT11=
EXTT12=
EXTT13=
EXTT14=
EXTT15=
EXTT16=
EXTT17=
EXTT18=
EXTT19=
EXTT20=
EXTT21=
EXTT22=
EXTT23=
PLAYORDER=
